<svg xmlns="http://www.w3.org/2000/svg" viewBox="0 0 60 60"><defs><style>.a{fill:#fff;}.b{fill:#87cd8e;}.c{fill:#ededed;}.d{fill:#c4c4c4;}</style></defs><g transform="translate(-294 -87)"><g transform="translate(294 87)"><path class="a" d="M30,0A30,30,0,1,1,0,30,30,30,0,0,1,30,0Z"/><path class="b" d="M41,31c-2.481-1.329-3.806-3-4.8-3H27.8A1.8,1.8,0,0,0,26,29.8V42.4a1.8,1.8,0,0,0,1.8,1.8h42a1.81,1.81,0,0,0,.455-.065c.094-.967.145-1.945.145-2.935A29.94,29.94,0,0,0,68.619,31Z" transform="translate(-10.4 -11.2)"/><path class="a" d="M22,38.6V48.8a.6.6,0,0,0,.6.6H68.5A29.894,29.894,0,0,0,67.924,38H22.6A.6.6,0,0,0,22,38.6Zm.6-.6h45a.6.6,0,0,1,.6.6V48.8a.6.6,0,0,1-.6.6h-45a.6.6,0,0,1-.6-.6V38.6A.6.6,0,0,1,22.6,38Z" transform="translate(-8.8 -15.2)"/><path class="c" d="M20,41.6V52.4a.6.6,0,0,0,.6.6H67.263a29.846,29.846,0,0,0,.244-12H20.6A.6.6,0,0,0,20,41.6Z" transform="translate(-8 -16.4)"/><path class="b" d="M16,45.8V69.588A29.994,29.994,0,0,0,66.4,47.6a30.338,30.338,0,0,0-.223-3.6H17.8A1.8,1.8,0,0,0,16,45.8Z" transform="translate(-6.4 -17.6)"/><path class="c" d="M26.6,54H48.2a.6.6,0,0,1,.6.6V66a.6.6,0,0,1-.6.6H26.6A.6.6,0,0,1,26,66V54.6A.6.6,0,0,1,26.6,54Z" transform="translate(-10.4 -21.6)"/><path class="d" d="M30,59v.6H48V59Zm0,3.6H48V62H30Zm0,3H48V65H30Z" transform="translate(-12 -23.6)"/></g></g></svg>