<svg xmlns="http://www.w3.org/2000/svg" viewBox="0 0 60 60"><defs><style>.a{fill:#87cd8e;}.b{opacity:0.2;}.c{fill:#231f20;}.d{fill:#fff;}.e{fill:#e0e0d1;}</style></defs><g transform="translate(-290 -210)"><g transform="translate(290 210)"><circle class="a" cx="30" cy="30" r="30"/><g class="b" transform="translate(11.25 21.469)"><path class="c" d="M30.75,22.9H14.344A2.3,2.3,0,0,0,12,25.15V45.963a2.321,2.321,0,0,0,2.344,2.344H47.156A2.321,2.321,0,0,0,49.5,45.963V22.9Z" transform="translate(-12 -22.9)"/></g><g transform="translate(11.25 19.594)"><path class="d" d="M30.75,20.9H14.344A2.3,2.3,0,0,0,12,23.15V43.963a2.321,2.321,0,0,0,2.344,2.344H47.156A2.321,2.321,0,0,0,49.5,43.963V20.9Z" transform="translate(-12 -20.9)"/></g><g transform="translate(30 15)"><path class="e" d="M50.75,18.344A2.321,2.321,0,0,0,48.406,16H36.688a2.321,2.321,0,0,0-2.344,2.344A2.719,2.719,0,0,1,32,20.688H50.75Z" transform="translate(-32 -16)"/></g></g></g></svg>