<svg xmlns="http://www.w3.org/2000/svg" viewBox="0 0 60 60.467"><defs><style>.a{fill:#fff;opacity:0.5;}.b{fill:#161514;fill-rule:evenodd;}</style></defs><g transform="translate(-85 -104)"><path class="a" d="M28.093,0C43.609,0,56.186,12.9,56.186,28.818S43.609,57.635,28.093,57.635,0,44.733,0,28.818,12.578,0,28.093,0Z" transform="translate(86.918 106.832)"/><g transform="translate(85 104)"><g transform="translate(-702 -703)"><g transform="translate(702 703)"><path class="b" d="M30,0a30.284,30.284,0,0,0-9.484,58.948c1.5.28,2.05-.656,2.05-1.455,0-.721-.028-3.1-.041-5.631-8.346,1.83-10.107-3.569-10.107-3.569-1.365-3.5-3.331-4.426-3.331-4.426-2.722-1.877.205-1.839.205-1.839,3.013.213,4.6,3.117,4.6,3.117,2.676,4.624,7.018,3.287,8.73,2.514a6.461,6.461,0,0,1,1.9-4.045c-6.663-.765-13.668-3.358-13.668-14.948a11.759,11.759,0,0,1,3.091-8.119,10.951,10.951,0,0,1,.291-8s2.519-.813,8.252,3.1a28.233,28.233,0,0,1,15.024,0c5.726-3.913,8.242-3.1,8.242-3.1a10.937,10.937,0,0,1,.294,8,11.736,11.736,0,0,1,3.088,8.119c0,11.617-7.018,14.175-13.7,14.924,1.076.939,2.035,2.779,2.035,5.6,0,4.047-.035,7.3-.035,8.3,0,.8.54,1.748,2.061,1.451A30.285,30.285,0,0,0,30,0"/><path class="b" d="M11.451,43.22c-.066.149-.3.193-.513.091s-.339-.3-.269-.45.3-.2.516-.093.342.3.266.452"/><path class="b" d="M12.664,44.573c-.143.132-.422.071-.611-.138a.458.458,0,0,1-.088-.622c.147-.132.418-.07.614.138s.234.488.085.622"/><path class="b" d="M13.845,46.3c-.183.127-.483.008-.669-.258s-.183-.586,0-.714.481-.013.669.251.183.59,0,.721"/><path class="b" d="M15.462,47.964c-.164.181-.514.132-.77-.115a.576.576,0,0,1-.17-.765c.166-.182.518-.13.776.115s.339.586.164.765"/><path class="b" d="M17.694,48.932c-.072.235-.409.341-.748.242s-.56-.377-.492-.614.409-.347.75-.241.56.375.49.613"/><path class="b" d="M20.144,49.112c.008.247-.279.452-.635.456s-.648-.192-.652-.435.281-.452.639-.458.648.191.648.437"/><path class="b" d="M22.425,48.723c.043.241-.2.488-.558.554s-.669-.085-.714-.324.209-.494.556-.558.671.083.716.328"/></g></g></g></g></svg>