<svg xmlns="http://www.w3.org/2000/svg" viewBox="0 0 60 60"><defs><style>.a{fill:#fff;}.a,.b,.c,.d,.e,.f{fill-rule:evenodd;}.b{fill:#ea4335;}.c{fill:#4285f4;}.d{fill:#fbbc05;}.e{fill:#34a853;}.f{fill:none;}</style></defs><g transform="translate(-502 -702)"><g transform="translate(502 702)"><path class="a" d="M0,30A30,30,0,1,1,30,60,30,30,0,0,1,0,30Z"/><g transform="translate(17 17)"><path class="b" d="M13,5.027a7.205,7.205,0,0,1,5.027,1.936L21.7,3.38A12.49,12.49,0,0,0,13,0,12.991,12.991,0,0,0,1.387,7.164l4.2,3.264A7.858,7.858,0,0,1,13,5.027Z"/><path class="c" d="M25.48,13.289a11.137,11.137,0,0,0-.274-2.658H13v4.824h7.164a6.354,6.354,0,0,1-2.658,4.218l4.1,3.178a12.71,12.71,0,0,0,3.871-9.562Z"/><path class="d" d="M5.6,15.571A8,8,0,0,1,5.171,13a8.41,8.41,0,0,1,.419-2.571l-4.2-3.264a12.972,12.972,0,0,0,0,11.671L5.6,15.571Z"/><path class="e" d="M13,26a12.39,12.39,0,0,0,8.609-3.149l-4.1-3.178A7.694,7.694,0,0,1,13,20.973a7.826,7.826,0,0,1-7.4-5.4L1.4,18.836A12.969,12.969,0,0,0,13,26Z"/><path class="f" d="M0,0H26V26H0Z"/></g></g></g></svg>