<svg xmlns="http://www.w3.org/2000/svg" viewBox="0 0 60 60"><defs><style>.a{fill:#f36;}.a,.b{fill-rule:evenodd;}.b{fill:#fff;}</style></defs><g transform="translate(-502 -400)"><g transform="translate(502 400)"><path class="a" d="M0,30A30,30,0,1,1,30,60,30,30,0,0,1,0,30Z"/><path class="b" d="M41.714,45.526c-3.286,0-4.857-1.951-4.857-4.619a8.446,8.446,0,0,1,.333-2.381l1.572-5.619A5.711,5.711,0,0,0,39,31.191a2.665,2.665,0,0,0-2.857-2.9c-2.239,0-3.715,1.563-4.477,4.659L28.617,45.128H23.284l.957-3.8C22.673,43.9,20.5,45.521,17.81,45.521c-3.238,0-4.762-1.855-4.762-4.665a10.7,10.7,0,0,1,.286-2.367L15.762,28.6H12l1.143-4.229h9.048L18.619,38.519a8.916,8.916,0,0,0-.333,2.17c0,.906.446,1.166,1.143,1.323.425.1,3.809.051,5.652-4.045L27.427,28.6h-3.81l1.143-4.229H32.9l-1.047,4.769c1.428-2.667,4.286-5.211,7.1-5.211,3,0,5.477,2.133,5.477,6.228a12.054,12.054,0,0,1-.524,3.471L42.38,39.1a6.324,6.324,0,0,0-.238,1.476c0,.952.381,1.428,1.1,1.428s1.619-.525,2.667-3.429l2.1.809C46.762,43.717,44.524,45.526,41.714,45.526ZM20.048,15a3.191,3.191,0,1,1-3.238,3.19A3.2,3.2,0,0,1,20.048,15Z"/></g></g></svg>