<svg xmlns="http://www.w3.org/2000/svg" viewBox="0 0 60 60"><defs><style>.a{fill:#0077b5;}.a,.b{fill-rule:evenodd;}.b{fill:#fff;}</style></defs><g transform="translate(-600 -200)"><g transform="translate(600 200)"><path class="a" d="M0,30A30,30,0,1,1,30,60,30,30,0,0,1,0,30Z"/><path class="b" d="M21.2,24.847V45.274H14.4V24.847Zm.448-6.319A3.546,3.546,0,0,1,17.8,22.059h-.043A3.54,3.54,0,1,1,17.846,15,3.532,3.532,0,0,1,21.648,18.528ZM45.719,33.562V45.274h-6.8V34.346c0-2.745-.984-4.618-3.445-4.618a3.721,3.721,0,0,0-3.488,2.482,4.644,4.644,0,0,0-.224,1.657V45.275h-6.8s.09-18.51,0-20.427h6.8v2.893a6.751,6.751,0,0,1,6.128-3.374C42.365,24.368,45.719,27.288,45.719,33.562Z"/></g></g></svg>