<svg xmlns="http://www.w3.org/2000/svg" viewBox="0 0 32 30"><defs><style>.a{fill:#fff;}</style></defs><path class="a" d="M23.528,0a8.748,8.748,0,0,0-8.417,8.994v4.131H2.667A2.743,2.743,0,0,0,0,15.937v11.25A2.743,2.743,0,0,0,2.667,30H22.222a2.743,2.743,0,0,0,2.667-2.812V15.937a2.743,2.743,0,0,0-2.667-2.812H19.556V8.958a4.157,4.157,0,0,1,3.961-4.271,4.117,4.117,0,0,1,4.039,4.219v4.687A1.368,1.368,0,0,0,28.889,15h1.778A1.368,1.368,0,0,0,32,13.593V8.905A8.692,8.692,0,0,0,23.528,0Z" transform="translate(0 0.001)"/></svg>