<svg xmlns="http://www.w3.org/2000/svg" viewBox="0 0 28.837 23.999">
  <defs>
    <style>
      .cls-1 {
        fill: #fff;
      }
    </style>
  </defs>
  <path id="Intersection_1" data-name="Intersection 1" class="cls-1" d="M-2195.1,48.5a2.4,2.4,0,0,1-2.4-2.4l.02-14.4c.008,0,3.044,1.618,6.321,3.208,5.466,2.651,7.41,3.208,8.078,3.208,2.531,0,14.282-6.352,14.4-6.416l.018,14.4a2.4,2.4,0,0,1-2.4,2.4Zm-2.4-20.531V26.9a2.4,2.4,0,0,1,2.4-2.4h24.032a2.4,2.4,0,0,1,2.4,2.4l-.018,1.2-.011.006c-.49.274-12.02,6.71-14.39,6.71C-2185.387,34.817-2197.379,28.038-2197.5,27.969Z" transform="translate(2197.5 -24.501)"/>
</svg>
