<svg xmlns="http://www.w3.org/2000/svg" viewBox="0 0 60 60"><defs><style>.a{fill:#fff;}.a,.b,.c,.d,.e{fill-rule:evenodd;}.b{fill:#32fc8d;}.c{fill:#0be370;}.d{fill:#14c767;}.e{fill:#00ab6c;}</style></defs><g transform="translate(-102 -702)"><g transform="translate(102 702)"><path class="a" d="M0,30A30,30,0,1,1,30,60,30,30,0,0,1,0,30Z"/><g transform="translate(15 17)"><path class="b" d="M20.277.03A.176.176,0,0,0,20,.2V21.293l9.169,4.618A.529.529,0,0,0,30,25.394V5.091a.267.267,0,0,0-.147-.239L20.277.03"/><path class="c" d="M10,16.034,19.885.158a.349.349,0,0,1,.441-.124l9.548,4.719a.223.223,0,0,1,.092.318L20.048,21,10,16.034"/><path class="d" d="M.649.137C.025-.17-.186.057.179.642L9.757,15.96,20,21,9.824,4.725a.441.441,0,0,0-.179-.162L.649.137"/><path class="e" d="M10,25.391a.529.529,0,0,1-.831.519L.554,21.554A1.114,1.114,0,0,1,0,20.647V.406A.353.353,0,0,1,.554.059L9.877,4.775a.226.226,0,0,1,.123.2V25.391"/></g></g></g></svg>