<svg xmlns="http://www.w3.org/2000/svg" xmlns:xlink="http://www.w3.org/1999/xlink" viewBox="0 0 53.994 47.994"><defs><style>.a{fill:#fff;fill-rule:evenodd;}.b{fill:url(#a);}</style><linearGradient id="a" x1="0.5" x2="0.5" y2="1" gradientUnits="objectBoundingBox"><stop offset="0" stop-color="#d8c700"/><stop offset="1" stop-color="#f0b75c"/></linearGradient></defs><g transform="translate(-212 -6)"><path class="a" d="M79.941,43.641h-4a2,2,0,1,1,0-4h4a2,2,0,1,1,0,4ZM72.084,30.329A2,2,0,0,1,69.256,27.5l2.828-2.828A2,2,0,0,1,74.912,27.5ZM69.137,45.936h0a11.994,11.994,0,0,1-9.193,19.7h-16A16,16,0,1,1,48.469,34.3,11.984,11.984,0,0,1,69.137,45.936Zm-37.19,3.7a12,12,0,0,0,12,12h16A8,8,0,1,0,55.61,46.932a11.985,11.985,0,0,0-23.663,2.709Zm26-16a7.972,7.972,0,0,0-5.662,2.349,16.113,16.113,0,0,1,5.629,5.854,11.472,11.472,0,0,1,7.883,1.322h0a7.985,7.985,0,0,0-7.85-9.525Zm0-8a2,2,0,0,1-2-2v-4a2,2,0,1,1,4,0v4A2,2,0,0,1,57.943,25.643ZM43.8,30.329,40.976,27.5A2,2,0,0,1,43.8,24.674L46.631,27.5A2,2,0,0,1,43.8,30.329Z" transform="translate(184.052 -11.645)"/><path class="b" d="M43.552,624.551a1.983,1.983,0,0,1-1.413-.586l-.864-.864a11.957,11.957,0,0,0,.72-4.1c0-.281-.01-.564-.029-.844a2.06,2.06,0,0,1,.173.154l2.828,2.828a2,2,0,0,1-1.415,3.414ZM39.2,611.3h0a12,12,0,0,0-3.349-2.778A8.006,8.006,0,0,0,28,599a7.948,7.948,0,0,0-5.663,2.349,15.9,15.9,0,0,0-3.824-1.7,12.114,12.114,0,0,1,4.12-3.385A12.005,12.005,0,0,1,39.2,611.3ZM49.994,609H46a2,2,0,1,1,0-4h4a2,2,0,1,1,0,4Zm-9.27-12.725a2,2,0,0,1-1.413-3.414l2.828-2.828a2,2,0,0,1,2.828,0,2,2,0,0,1,0,2.828l-2.828,2.828A1.988,1.988,0,0,1,40.724,596.271Zm-25.453,0a1.985,1.985,0,0,1-1.414-.586l-2.829-2.828a2,2,0,0,1,2.829-2.828l2.828,2.828a2,2,0,0,1-1.414,3.414ZM28,591a2,2,0,0,1-2-2v-4a2,2,0,0,1,4,0v4A2,2,0,0,1,28,591Z" transform="translate(214 -577)"/></g></svg>