<svg xmlns="http://www.w3.org/2000/svg" xmlns:xlink="http://www.w3.org/1999/xlink" viewBox="0 0 43.995 44.996"><defs><style>.a{fill:rgba(255,255,255,0.9);}.b{fill:url(#a);}</style><linearGradient id="a" x1="0.5" y1="0.806" x2="0.5" y2="1" gradientUnits="objectBoundingBox"><stop offset="0" stop-color="#36ccf0" stop-opacity="0.902"/><stop offset="1" stop-color="#39d9ff" stop-opacity="0.902"/></linearGradient></defs><g transform="translate(-11 -9)"><path class="a" d="M31,663.3h0v-4.38a8.072,8.072,0,0,0,2.894-2.87,7.986,7.986,0,0,0-11.228-10.759,12.087,12.087,0,0,0-4.16-6.639,11.974,11.974,0,0,0-15.988.863A11.976,11.976,0,0,0,3,656.924v4.914A16.131,16.131,0,0,1-2.793,656.1a15.995,15.995,0,0,1,22-21.832,16.1,16.1,0,0,1,5.757,5.936A12.123,12.123,0,0,1,27,640a11.993,11.993,0,0,1,4,23.3Z" transform="translate(16 -623)"/><path class="b" d="M21.86,679.648a2,2,0,0,1-2-2v-4a2,2,0,0,1,4,0v4A2,2,0,0,1,21.86,679.648Zm8-4a2,2,0,0,1-2-2v-4a2,2,0,1,1,4,0v4A2,2,0,0,1,29.86,675.648Zm-16,0a2,2,0,0,1-2-2v-4a2,2,0,1,1,4,0v4A2,2,0,0,1,13.862,675.648Zm8-8a2,2,0,0,1-2-2v-4a2,2,0,1,1,4,0v4A2,2,0,0,1,21.86,667.65Zm8-4a2,2,0,0,1-2-2v-4a2,2,0,1,1,4,0v4A2,2,0,0,1,29.86,663.65Zm-16,0a2,2,0,0,1-2-2v-4a2,2,0,0,1,4,0v4A2,2,0,0,1,13.862,663.65Z" transform="translate(11.136 -625.653)"/></g></svg>