<svg xmlns="http://www.w3.org/2000/svg" viewBox="0 0 60 60"><defs><style>.a{fill:#1ed760;}.a,.b{fill-rule:evenodd;}.b{fill:#fff;}</style></defs><g transform="translate(0)"><g transform="translate(-202 -903)"><g transform="translate(202 903)"><path class="a" d="M30,0A30,30,0,1,0,60,30,30,30,0,0,0,30,0"/><path class="b" d="M43.1,42.618a1.84,1.84,0,0,1-2.532.613c-6.939-4.241-15.672-5.2-25.957-2.849a1.841,1.841,0,1,1-.82-3.59c11.256-2.573,20.91-1.466,28.7,3.293a1.842,1.842,0,0,1,.611,2.533"/><path class="b" d="M46.714,34.572a2.3,2.3,0,0,1-3.169.759C35.605,30.45,23.5,29.036,14.1,31.888a2.3,2.3,0,1,1-1.339-4.408C23.5,24.223,36.836,25.8,45.956,31.405a2.3,2.3,0,0,1,.758,3.167"/><path class="b" d="M47.026,26.195C37.5,20.538,21.791,20.018,12.7,22.778a2.764,2.764,0,0,1-1.6-5.289c10.438-3.168,27.788-2.556,38.753,3.952a2.764,2.764,0,0,1-2.821,4.753"/></g></g></g></svg>