<svg xmlns="http://www.w3.org/2000/svg" xmlns:xlink="http://www.w3.org/1999/xlink" viewBox="0 0 47.994 47.994"><defs><style>.a{fill-rule:evenodd;fill:url(#a);}</style><linearGradient id="a" x1="0.5" x2="0.5" y2="1" gradientUnits="objectBoundingBox"><stop offset="0" stop-color="#d8c700"/><stop offset="1" stop-color="#f0b75c"/></linearGradient></defs><path class="a" d="M72,52H68a2,2,0,1,1,0-4h4a2,2,0,1,1,0,4ZM64.142,38.688a2,2,0,0,1-2.828-2.828l2.828-2.828A2,2,0,0,1,66.97,35.86ZM50,62A12,12,0,1,1,62,50,12,12,0,0,1,50,62Zm0-20a8,8,0,1,0,8,8A8,8,0,0,0,50,42Zm0-8a2,2,0,0,1-2-2V28a2,2,0,0,1,4,0v4A2,2,0,0,1,50,34ZM35.86,38.688,33.032,35.86a2,2,0,0,1,2.828-2.828l2.828,2.828a2,2,0,0,1-2.828,2.828ZM34,50a2,2,0,0,1-2,2H28a2,2,0,0,1,0-4h4A2,2,0,0,1,34,50ZM35.86,61.312a2,2,0,0,1,2.828,2.828L35.86,66.968a2,2,0,0,1-2.828-2.828ZM50,66a2,2,0,0,1,2,2v4a2,2,0,0,1-4,0V68A2,2,0,0,1,50,66Zm14.141-4.686L66.97,64.14a2,2,0,0,1-2.828,2.828L61.314,64.14a2,2,0,0,1,2.828-2.828Z" transform="translate(-26.003 -26.003)"/></svg>