<svg xmlns="http://www.w3.org/2000/svg" viewBox="0 0 60 60"><defs><style>.a{fill:#55acee;}.a,.b{fill-rule:evenodd;}.b{fill:#fff;}</style></defs><g transform="translate(-500 -200)"><g transform="translate(500 200)"><path class="a" d="M0,30A30,30,0,1,1,30,60,30,30,0,0,1,0,30Z"/><path class="b" d="M29.1,24.384l.063,1.038L28.115,25.3a17.066,17.066,0,0,1-9.989-4.915L16.742,19l-.357,1.017a6.114,6.114,0,0,0,1.3,6.271c.839.89.651,1.017-.8.487a2.475,2.475,0,0,0-.986-.233,7.591,7.591,0,0,0,.755,2.839A6.776,6.776,0,0,0,19.533,32.1l1.028.487-1.217.021c-1.175,0-1.217.021-1.091.466a6.344,6.344,0,0,0,3.924,3.474l1.3.445-1.133.678a11.814,11.814,0,0,1-5.624,1.568A6.214,6.214,0,0,0,15,39.4a15.964,15.964,0,0,0,4.05,1.864A17.725,17.725,0,0,0,32.816,39.7a18.423,18.423,0,0,0,6.988-8.22,21.852,21.852,0,0,0,1.427-6.356c0-.975.063-1.1,1.238-2.267a13.834,13.834,0,0,0,1.469-1.631c.21-.4.189-.4-.881-.042-1.784.636-2.035.551-1.154-.4a6.163,6.163,0,0,0,1.427-2.267c0-.064-.315.042-.672.233a11.707,11.707,0,0,1-1.847.72l-1.133.36-1.028-.7a8.541,8.541,0,0,0-1.784-.932,7.169,7.169,0,0,0-3.672.085A6.065,6.065,0,0,0,29.1,24.384Z"/></g></g></svg>