<svg xmlns="http://www.w3.org/2000/svg" viewBox="0 0 60 60"><defs><style>.a{fill:red;}.a,.b{fill-rule:evenodd;}.b{fill:#fff;}</style></defs><g transform="translate(-402 -703)"><g transform="translate(402 703)"><path class="a" d="M0,30A30,30,0,1,1,30,60,30,30,0,0,1,0,30Z"/><path class="b" d="M45.331,22.592a4.063,4.063,0,0,0-2.829-2.9C40.007,19,30,19,30,19s-10.007,0-12.5.687a4.063,4.063,0,0,0-2.829,2.9A43.885,43.885,0,0,0,14,30.5a43.886,43.886,0,0,0,.669,7.908A4.063,4.063,0,0,0,17.5,41.314C19.993,42,30,42,30,42s10.007,0,12.5-.686a4.063,4.063,0,0,0,2.829-2.905A43.875,43.875,0,0,0,46,30.5a43.874,43.874,0,0,0-.669-7.908"/><path class="a" d="M27,36V26l8,5Z"/></g></g></svg>